<svg xmlns="http://www.w3.org/2000/svg" viewBox="0 0 554.39 160.7"><defs><style>.cls-1{fill:#1fa9ff;}.cls-2{fill:#ea1889;}</style></defs><title>Asset 1</title><g id="Layer_2" data-name="Layer 2"><g id="Layer_1-2" data-name="Layer 1"><path class="cls-1" d="M96.16,102c7.45-1.53,11.34,5.86,12.76,12.81,1.6,7.85-.14,15-6.8,16.4s-11.19-4.65-12.78-12.4C87.94,111.93,88.7,103.49,96.16,102Zm-1.7-10.84c-14.31,2.92-24.09,14.34-20.74,30.74C77,137.77,89.83,145,103.64,142.16c12.12-2.48,24.56-12.58,20.84-30.76C121.27,95.7,109.07,88.15,94.46,91.13ZM27.6,156.55l-4.13-20.17c-2.23-10.93-4.36-20.33-6.56-29.1l.28-.16A250.68,250.68,0,0,0,33.65,128.4l19.58,22.91,15.9-3.24-13.68-67L41.54,83.93l4,19.48a254.68,254.68,0,0,0,7,27.76l-.29.06a198.81,198.81,0,0,0-15.62-20.72L17.69,88.8,0,92.42l13.68,67Z"/><path class="cls-1" d="M298.3,98.76a35.08,35.08,0,0,0,16.41.28C328.62,96.19,334.4,88,332.55,78.93c-1.56-7.13-6.39-11-16.28-12.3-6.39-.87-8.52-1.68-9-4-.51-2.48,1.28-4.4,5-5.15a24.45,24.45,0,0,1,11.1.63l.56-11a33.29,33.29,0,0,0-14.29,0c-12,2.46-18.37,10.9-16.5,20,1,5.68,6,10.36,16.77,11.69,6.05.73,7.79,1.61,8.3,4.1s-1.06,4.46-5.63,5.39a29.93,29.93,0,0,1-13.77-1ZM269.92,84.48a13.34,13.34,0,0,1,.31,4.08,8.37,8.37,0,0,1-6.69,7.78c-6.36,1.3-11.1-3.63-12.58-10.89-1.8-8.84,1.65-14.72,7.12-15.84,4.17-.85,7.6,1.24,9.51,5a12.17,12.17,0,0,1,.86,2.73Zm12.54-15.61c-1.48-7.25-2.11-11.37-2.54-14.49L266.8,57.06l.68,5.87-.2,0c-3.3-3.47-8.06-5.5-14.72-4.14-11.92,2.44-20,14.45-16.84,30.05,2.86,14,13.4,22,25.42,19.55,5.57-1.14,9.77-4.38,11.82-9l.2,0,.65,3.18c1.83,8.94-2.85,13.93-10,15.39a30.49,30.49,0,0,1-14.87-.79l-.64,12c4.88,1.59,11.9,1.5,18.26.2,7.15-1.46,14.12-4.34,18.56-10,4.47-6,4.79-14,2.88-23.37ZM209.51,46.72c-4.87,1-7.38,4.92-6.39,9.27.75,4.2,4.62,6.93,9.39,5.95,5-1,7.46-5,6.61-9.22C218.13,48.37,214.38,45.72,209.51,46.72Zm21.8,68.21-9.93-48.59-15.1,3.09L216.21,118Zm-76.22,15.58,52.07-10.64-2.55-12.52-31.7,6.47-.09-.39,22-51.69L193,53l-48.59,9.93L147,75.44l28.92-5.91.08.4-22.52,52.43Z"/><path class="cls-2" d="M350.59,121.1l.91,4.49-2.75.56,1,4.74,2.75-.56,1.73,8.46c.6,2.92,1.6,4.79,3,5.77a6.84,6.84,0,0,0,5.2.84A12.69,12.69,0,0,0,366.5,144l-1-4.86a10.22,10.22,0,0,1-1.87.56c-1.94.4-2.77-.62-3.28-3.12L358.78,129l4.61-.95-1-4.74-4.61,1-1.21-5.93Zm-20.3,30.38,6.44-1.32-2.44-11.93a4.78,4.78,0,0,1-.08-1.66,3.52,3.52,0,0,1,2.77-3.08c2.33-.48,3.63,1.15,4.18,3.82l2.34,11.47,6.43-1.31-2.5-12.28c-1.25-6.09-5-8.24-9.23-7.37a7.7,7.7,0,0,0-5.71,4.6l-.13,0-.88-2.78-5.58,1.15c.45,1.8,1,4,1.51,6.56Zm-18.16-13.57c3.18-.65,4.83,2.49,5.44,5.45.68,3.35-.06,6.41-2.89,7s-4.77-2-5.45-5.28C308.63,142.15,309,138.55,312.13,137.91Zm-.72-4.62c-6.09,1.25-10.26,6.11-8.83,13.09,1.38,6.78,6.86,9.84,12.74,8.64,5.17-1.05,10.46-5.35,8.88-13.1C322.83,135.23,317.63,132,311.41,133.29Zm-19,16.32a5.39,5.39,0,0,1,.13,1.52,3.85,3.85,0,0,1-3.09,3.85c-2.67.54-4.85-1.3-5.57-4.82-.67-3.26.32-6.19,3.24-6.79a4,4,0,0,1,4.42,2.41,11,11,0,0,1,.32,1.12Zm-4.25-20.82L290.43,140l-.09,0c-1.22-1.25-3.39-1.73-5.93-1.21-5,1-8.49,5.92-7,12.9,1.31,6.43,6.1,9.82,11,8.81a7.37,7.37,0,0,0,5.76-4.83l.09,0,.91,3,5.72-1.17c-.37-1.38-1-3.82-1.43-6.15l-4.88-23.87Z"/><path class="cls-2" d="M421.65,123.2a5.51,5.51,0,0,1,.14,1.74,3.57,3.57,0,0,1-2.85,3.32c-2.71.55-4.73-1.55-5.36-4.64-.77-3.77.7-6.27,3-6.75a3.6,3.6,0,0,1,4.05,2.13,4.94,4.94,0,0,1,.37,1.16Zm5.35-6.64c-.63-3.09-.9-4.85-1.09-6.18l-5.58,1.15.29,2.49-.09,0a6.36,6.36,0,0,0-6.27-1.76c-5.08,1-8.53,6.15-7.17,12.8,1.22,6,5.7,9.37,10.83,8.32a6.73,6.73,0,0,0,5-3.85l.08,0,.28,1.36c.78,3.81-1.21,5.93-4.26,6.56a13.07,13.07,0,0,1-6.33-.34l-.27,5.13a16.45,16.45,0,0,0,7.77.08c3-.62,6-1.84,7.91-4.26s2-6,1.23-9.95Zm-31.08-9.44a3.31,3.31,0,1,0,1.28,6.48,3.31,3.31,0,1,0-1.28-6.48Zm9.29,29L401,115.48l-6.43,1.31,4.23,20.7Zm-27.93,5.71,18-3.67-1-5.13-10,2,0-.09a47,47,0,0,0,2.61-4.5l4.62-9.1-.78-3.85L373.77,121l1,5.08,9.1-1.86,0,.08c-.92,1.51-1.65,2.72-2.55,4.36l-4.85,9.5Z"/><path class="cls-2" d="M468.11,123.33l6.43-1.32-2.14-10.5a7,7,0,0,1-.17-1.46,4.21,4.21,0,0,1,3.74-4.16,6.45,6.45,0,0,1,1.77-.14l-1.24-6.1a6.78,6.78,0,0,0-1.37.19,6.23,6.23,0,0,0-4.72,5.42l-.17,0-1-3.77-5.54,1.13c.45,1.76.94,3.73,1.56,6.78ZM450,109.75c3.17-.65,4.83,2.5,5.43,5.46.69,3.34-.06,6.41-2.89,7s-4.77-2-5.45-5.28C446.45,114,446.77,110.4,450,109.75Zm-.73-4.61c-6.09,1.24-10.26,6.11-8.83,13.09,1.38,6.77,6.86,9.84,12.74,8.64,5.17-1.06,10.46-5.36,8.88-13.1C460.64,107.08,455.45,103.87,449.22,105.14Z"/><path class="cls-2" d="M546.22,97.76a5.43,5.43,0,0,1,.13,1.73,3.57,3.57,0,0,1-2.85,3.32c-2.71.55-4.72-1.55-5.35-4.64-.77-3.77.7-6.27,3-6.75a3.61,3.61,0,0,1,4.05,2.13,5.46,5.46,0,0,1,.37,1.16Zm5.34-6.65c-.63-3.09-.9-4.84-1.08-6.17l-5.59,1.14.29,2.5h-.08a6.39,6.39,0,0,0-6.27-1.76c-5.08,1-8.53,6.15-7.18,12.8,1.22,6,5.71,9.37,10.83,8.32a6.73,6.73,0,0,0,5-3.85h.09l.28,1.35c.77,3.81-1.22,5.94-4.26,6.56a12.93,12.93,0,0,1-6.33-.34l-.28,5.13a16.37,16.37,0,0,0,7.78.08c3.05-.62,6-1.84,7.9-4.26s2-6,1.23-10Zm-29.5,13.35a4.83,4.83,0,0,1,.09,1.12,3.57,3.57,0,0,1-2.85,3,2.36,2.36,0,0,1-3-1.93c-.51-2.5,2-3.84,5.35-4.49Zm5.3-6c-1-4.87-4-8.48-10.92-7.07a17.38,17.38,0,0,0-7.67,3.46l2,3.9A11.9,11.9,0,0,1,516.19,96c3.18-.65,4.09.8,4.32,1.9l.06.29c-7.34,1.46-11.63,5-10.53,10.4a6.47,6.47,0,0,0,8,5,7.62,7.62,0,0,0,5.41-3.75l.12,0,.81,2,5.8-1.18a32.56,32.56,0,0,1-1.33-5Zm-36.27,20.15,18-3.68L508,109.83l-9.94,2,0-.09a51.69,51.69,0,0,0,2.61-4.5l4.62-9.1-.79-3.85-16.93,3.46,1,5.07,9.1-1.85,0,.08c-.93,1.51-1.65,2.72-2.55,4.36l-4.85,9.5Z"/><path class="cls-2" d="M377.52,19.65a21,21,0,1,1-16.43,24.82A21.07,21.07,0,0,1,377.52,19.65Zm14.3,77.13.45.17a2.32,2.32,0,0,0,1.05,0,2.39,2.39,0,0,0,.95-.45l.35-.33c29.24-28,28.78-53.37,26.61-64a40.26,40.26,0,0,0-37-32.1l-.42,0a40.51,40.51,0,0,0-19.69,4l-.37.19a40.28,40.28,0,0,0-21.48,44.06C344.41,59,353.93,82.46,391.82,96.78Z"/></g></g></svg>